<?xml version="1.0" encoding="iso-8859-1"?>
<!-- Generator: Adobe Illustrator 19.1.1, SVG Export Plug-In . SVG Version: 6.00 Build 0)  -->
<svg version="1.1"  xmlns="http://www.w3.org/2000/svg" xmlns:xlink="http://www.w3.org/1999/xlink" x="0px" y="0px"
	 viewBox="0 0 48 48" style="enable-background:new 0 0 48 48;" xml:space="preserve">
<g>
	<path style="fill:#FFCC80;" d="M22.959,18H38v24H22.959c-3.247,0-5.878-2.686-5.878-5.996V24C17.081,20.684,19.712,18,22.959,18z"
		/>
	<path style="fill:#FFCC80;" d="M34,21c0,1.656,1.343,3,3,3h3c1.657,0,3-1.344,3-3l0,0c0-1.656-1.343-3-3-3h-3
		C35.343,18,34,19.344,34,21L34,21z"/>
	<path style="fill:#FFCC80;" d="M31,27c0,1.656,1.343,3,3,3h6c1.657,0,3-1.344,3-3l0,0c0-1.656-1.343-3-3-3h-6
		C32.343,24,31,25.344,31,27L31,27z"/>
	<path style="fill:#FFCC80;" d="M30,33c0,1.656,1.343,3,3,3h6c1.657,0,3-1.344,3-3l0,0c0-1.656-1.343-3-3-3h-6
		C31.343,30,30,31.344,30,33L30,33z"/>
	<path style="fill:#FFCC80;" d="M29,39c0,1.656,1.343,3,3,3h6c1.657,0,3-1.344,3-3l0,0c0-1.656-1.343-3-3-3h-6
		C30.343,36,29,37.344,29,39L29,39z"/>
	<path style="fill:#FFCC80;" d="M24.526,13.566c0.926-1.031,1.582-2.277,1.916-3.631l0.724-2.955C27.306,6.402,27.815,6,28.397,6
		h0.675c1.781,0,2.968,2,2.968,3.293v1.393c0,2.828-0.453,5.609-1.813,8.072l-2.626,4.762l-8.193-4.266L24.526,13.566z"/>
</g>
<g>
	<path style="fill:#F2A25A;" d="M41,24h-4c-0.552,0-1,0.447-1,1c0,0.553,0.448,1,1,1L41,24z"/>
	<path style="fill:#F2A25A;" d="M40,30h-4c-0.552,0-1,0.447-1,1s0.448,1,1,1L40,30z"/>
	<path style="fill:#F2A25A;" d="M39,36h-4c-0.552,0-1,0.447-1,1s0.448,1,1,1L39,36z"/>
</g>
<polygon style="fill:#BA68C8;" points="18,41 8,41 5,19 18,19 "/>
<circle style="fill:#F3E5F5;" cx="13" cy="36" r="2"/>
</svg>
