<?xml version="1.0" encoding="iso-8859-1"?>
<!-- Generator: Adobe Illustrator 18.0.0, SVG Export Plug-In . SVG Version: 6.00 Build 0)  -->
<!DOCTYPE svg PUBLIC "-//W3C//DTD SVG 1.1//EN" "http://www.w3.org/Graphics/SVG/1.1/DTD/svg11.dtd">
<svg version="1.1" id="Capa_1" xmlns="http://www.w3.org/2000/svg" xmlns:xlink="http://www.w3.org/1999/xlink" x="0px" y="0px"
	 viewBox="0 0 293.896 293.896" style="enable-background:new 0 0 293.896 293.896;" xml:space="preserve">
<path d="M258.281,112.004h-75.48l2.656-12.137c1.968-8.998,4.467-22.756,5.19-37.208c1.173-23.438-2.308-53.138-25.554-61.533
	C165.059,1.116,161.293,0,156.4,0c-19.844,0-24.172,16.838-24.985,26.875c-3.937,48.515-18.636,81.269-30.272,100.203l-7.42,12.072
	v-14.607c0-5.071-4.11-9.182-9.182-9.182H16.762c-5.071,0-9.182,4.111-9.182,9.182v160.172c0,5.071,4.11,9.182,9.182,9.182h67.779
	c5.071,0,9.182-4.111,9.182-9.182v-9.731l6.368,5.472c9.467,8.145,21.167,12.63,32.943,12.63l68.714-0.027
	c15.463,0,28.039-12.576,28.039-28.033c0-1.978-0.215-3.969-0.64-5.915l-1.602-7.346l6.612-3.579
	c9.061-4.904,14.689-14.352,14.689-24.656c0-2.714-0.395-5.407-1.174-8.003l-2.001-6.674l5.567-4.189
	c7.029-5.289,11.06-13.424,11.06-22.322c0-1.645-0.149-3.305-0.444-4.936l-1.48-8.189l7.783-2.943
	c10.86-4.106,18.156-14.65,18.156-26.236C286.316,124.579,273.74,112.004,258.281,112.004z M75.359,275.533H25.943V133.725h49.416
	V275.533z"/>
<g>
</g>
<g>
</g>
<g>
</g>
<g>
</g>
<g>
</g>
<g>
</g>
<g>
</g>
<g>
</g>
<g>
</g>
<g>
</g>
<g>
</g>
<g>
</g>
<g>
</g>
<g>
</g>
<g>
</g>
</svg>
